<?xml version="1.0" encoding="UTF-8" standalone="no"?>
<svg width="14px" height="14px" viewBox="0 0 14 14" version="1.1" xmlns="http://www.w3.org/2000/svg" xmlns:xlink="http://www.w3.org/1999/xlink">
    <!-- Generator: Sketch 3.8.3 (29802) - http://www.bohemiancoding.com/sketch -->
    <title>Combined Shape</title>
    <desc>Created with Sketch.</desc>
    <defs></defs>
    <g id="Page-1" stroke="none" stroke-width="1" fill="none" fill-rule="evenodd">
        <path d="M5.58578591,9.82842659 L2.70711897,12.707119 L4,14 L0,14 L0,10 L1.29291138,11.2929114 L4.17158341,8.41422409 L5.58578591,9.82842659 L5.58578591,9.82842659 Z M4.17157716,5.58578216 L1.29289241,2.70710759 L0,4 L0,0 L4,0 L2.70710379,1.29289621 L5.58578091,4.17157841 L4.17157716,5.58578216 L4.17157716,5.58578216 Z M8.41422409,4.17158341 L11.2929114,1.29291138 L10,0 L14,0 L14,4 L12.707119,2.70711897 L9.82842659,5.58578591 L8.41422409,4.17158341 L8.41422409,4.17158341 Z M9.82842034,8.41422034 L12.7071,11.2929 L14,10 L14,14 L10,14 L11.2929,12.7071 L8.41422034,9.82842034 L9.82842034,8.41422034 L9.82842034,8.41422034 Z" id="Combined-Shape" fill="#000000"></path>
    </g>
</svg>